<svg viewBox="0 0 128 128" xmlns="http://www.w3.org/2000/svg">
  <defs>
    <linearGradient id="grad2" x1="0%" y1="0%" x2="100%" y2="100%">
      <stop offset="0%" style="stop-color:#60A5FA;stop-opacity:1" />
      <stop offset="100%" style="stop-color:#3B82F6;stop-opacity:1" />
    </linearGradient>
  </defs>
  <rect x="0" y="0" width="128" height="128" rx="32" fill="#0F172A"/>
  <path d="M32 40 H96 A16 16 0 0 1 112 56 V72 A16 16 0 0 1 96 88 H72 L64 104 L56 88 H32 A16 16 0 0 1 16 72 V56 A16 16 0 0 1 32 40" fill="url(#grad2)"/>
  <path d="M44 64 A4 4 0 0 0 52 64 A4 4 0 0 0 44 64" fill="white"/>
  <path d="M60 64 A4 4 0 0 0 68 64 A4 4 0 0 0 60 64" fill="white"/>
  <path d="M76 64 A4 4 0 0 0 84 64 A4 4 0 0 0 76 64" fill="white"/>
</svg>
